<svg width="12" height="21" viewBox="0 0 12 21" fill="none" xmlns="http://www.w3.org/2000/svg">
<path d="M1.9942 0.99591C2.12581 0.995149 2.25627 1.02037 2.37811 1.07014C2.49994 1.1199 2.61076 1.19323 2.7042 1.28591L11.7042 10.2859C11.7979 10.3789 11.8723 10.4895 11.9231 10.6113C11.9739 10.7332 12 10.8639 12 10.9959C12 11.1279 11.9739 11.2586 11.9231 11.3805C11.8723 11.5023 11.7979 11.6129 11.7042 11.7059L2.7042 20.7059C2.5159 20.8942 2.2605 21 1.9942 21C1.7279 21 1.47251 20.8942 1.2842 20.7059C1.0959 20.5176 0.99011 20.2622 0.99011 19.9959C0.99011 19.7296 1.0959 19.4742 1.2842 19.2859L9.5842 10.9959L1.2842 2.70591C1.19047 2.61295 1.11608 2.50235 1.06531 2.38049C1.01454 2.25863 0.988402 2.12792 0.988402 1.99591C0.988402 1.8639 1.01454 1.73319 1.06531 1.61133C1.11608 1.48947 1.19047 1.37887 1.2842 1.28591C1.37764 1.19323 1.48845 1.1199 1.61029 1.07014C1.73213 1.02037 1.86259 0.995149 1.9942 0.99591Z" fill="white"/>
</svg>
