<svg width="12" height="21" viewBox="0 0 12 21" fill="none" xmlns="http://www.w3.org/2000/svg">
<path d="M10.0058 20.0041C9.87419 20.0049 9.74373 19.9796 9.62189 19.9299C9.50005 19.8801 9.38924 19.8068 9.2958 19.7141L0.295798 10.7141C0.20207 10.6211 0.127676 10.5105 0.0769072 10.3887C0.0261385 10.2668 0 10.1361 0 10.0041C0 9.87208 0.0261385 9.74137 0.0769072 9.61951C0.127676 9.49765 0.20207 9.38706 0.295798 9.29409L9.2958 0.294092C9.4841 0.105788 9.7395 0 10.0058 0C10.2721 0 10.5275 0.105788 10.7158 0.294092C10.9041 0.482395 11.0099 0.73779 11.0099 1.00409C11.0099 1.27039 10.9041 1.52579 10.7158 1.71409L2.4158 10.0041L10.7158 18.2941C10.8095 18.3871 10.8839 18.4977 10.9347 18.6195C10.9855 18.7414 11.0116 18.8721 11.0116 19.0041C11.0116 19.1361 10.9855 19.2668 10.9347 19.3887C10.8839 19.5105 10.8095 19.6211 10.7158 19.7141C10.6224 19.8068 10.5115 19.8801 10.3897 19.9299C10.2679 19.9796 10.1374 20.0049 10.0058 20.0041Z" fill="white"/>
</svg>
