<svg width="14" height="15" viewBox="0 0 14 15" fill="none" xmlns="http://www.w3.org/2000/svg">
<path d="M3.54857 5.21169V14.3851H0.775186V5.21169H3.54857ZM3.72489 2.37961C3.72541 2.39603 3.72592 2.41528 3.72592 2.4351C3.72592 2.85917 3.56245 3.24078 3.3013 3.50802L3.30028 3.50859C3.02011 3.79055 2.64536 3.96324 2.23359 3.96324C2.2084 3.96324 2.1827 3.96267 2.15751 3.96154H2.16111H2.14414C2.12307 3.96267 2.09839 3.96324 2.07372 3.96324C1.67069 3.96324 1.30467 3.78999 1.03273 3.50802L1.03325 3.50859C0.774158 3.23229 0.61377 2.84615 0.61377 2.41868C0.61377 2.40509 0.61377 2.3915 0.614284 2.37734V2.37961C0.61377 2.36772 0.61377 2.35413 0.61377 2.34054C0.61377 1.9091 0.780327 1.5207 1.0461 1.24836L1.04713 1.2478C1.32678 0.967532 1.7005 0.79541 2.11021 0.79541C2.13386 0.79541 2.15699 0.795976 2.18064 0.797109H2.17756C2.19966 0.795976 2.22485 0.79541 2.25107 0.79541C2.65461 0.79541 3.02217 0.966966 3.29668 1.24723L3.29565 1.2461C3.56039 1.52749 3.72489 1.92156 3.72489 2.35809V2.38187V2.38074V2.37961ZM13.524 9.12859V14.3851H10.7594V9.47906C10.7619 9.43433 10.763 9.38224 10.763 9.33015C10.763 8.82284 10.635 8.34894 10.4124 7.94469L10.4185 7.95658C10.199 7.61913 9.84433 7.40228 9.44388 7.40228C9.41303 7.40228 9.38219 7.40341 9.35134 7.40624H9.35546C9.34158 7.40567 9.32564 7.40511 9.3097 7.40511C8.99098 7.40511 8.69797 7.5257 8.46612 7.72783L8.46921 7.72557C8.23634 7.93336 8.05384 8.1989 7.93869 8.50408L7.93458 8.5171C7.87495 8.7181 7.84102 8.94911 7.84102 9.18917C7.84102 9.21635 7.84153 9.24352 7.84256 9.2707V9.26674V14.3862H5.07792C5.08923 11.9241 5.09488 9.92767 5.09488 8.39707C5.09488 6.86647 5.09214 5.95321 5.08666 5.65728L5.07843 5.21282H7.84308V6.54563H7.82611C7.93612 6.3503 8.04973 6.181 8.17465 6.02247L8.17054 6.02757C8.31499 5.85262 8.47024 5.69465 8.63731 5.5531L8.64553 5.54631C8.85321 5.37022 9.09688 5.23207 9.36111 5.14771L9.37653 5.14375C9.6531 5.05259 9.97131 4.99993 10.3003 4.99993H10.3409H10.3389C10.3754 4.99823 10.418 4.9971 10.4607 4.9971C11.3248 4.9971 12.1031 5.40136 12.6486 6.04795L12.6501 6.05022C13.2334 6.75078 13.525 7.77672 13.525 9.12802L13.524 9.12859Z" fill="#272727"/>
</svg>
