<svg width="264" height="28" viewBox="0 0 264 28" fill="none" xmlns="http://www.w3.org/2000/svg">
<path d="M83.6807 5.51054H76.168V1.39246H95.7938V5.51054H88.2811V26.6203H83.6807V5.51054Z" fill="black"/>
<path d="M102.84 27.1954C101.158 27.1954 99.6311 26.744 98.2584 25.8412C96.8857 24.9385 95.8098 23.7142 95.0307 22.1683C94.2516 20.6225 93.8621 18.9283 93.8621 17.0857C93.8621 15.2554 94.2516 13.5674 95.0307 12.0216C95.8222 10.4757 96.8981 9.25144 98.2584 8.34867C99.6311 7.43355 101.152 6.97598 102.822 6.97598C104.38 6.97598 105.759 7.31606 106.958 7.99623C108.17 8.66402 109.085 9.59152 109.704 10.7787V7.55103H113.97V26.6203H109.704V23.4112C109.085 24.5984 108.17 25.5259 106.958 26.1937C105.759 26.8615 104.386 27.1954 102.84 27.1954ZM103.916 23.0402C104.943 23.0402 105.882 22.7805 106.736 22.2611C107.601 21.7293 108.282 21.0121 108.776 20.1093C109.271 19.1942 109.518 18.1863 109.518 17.0857C109.518 15.9974 109.265 15.0019 108.758 14.0991C108.263 13.184 107.589 12.4606 106.736 11.9288C105.882 11.397 104.943 11.1312 103.916 11.1312C102.89 11.1312 101.95 11.3847 101.097 11.8917C100.243 12.3864 99.5631 13.0851 99.0561 13.9878C98.5614 14.8906 98.3141 15.9232 98.3141 17.0857C98.3141 18.2852 98.5676 19.3364 99.0746 20.2392C99.5816 21.1419 100.262 21.8344 101.115 22.3167C101.968 22.799 102.902 23.0402 103.916 23.0402Z" fill="black"/>
<path d="M118.624 0.674316L123.113 0.674327V26.6203H118.624V0.674316Z" fill="black"/>
<path d="M145.89 16.7518C145.89 17.1722 145.859 17.6793 145.797 18.2729H130.901C131.05 19.2869 131.371 20.165 131.866 20.907C132.373 21.6489 132.997 22.2178 133.739 22.6135C134.494 22.9969 135.31 23.1886 136.188 23.1886C137.301 23.1886 138.21 22.9722 138.915 22.5393C139.632 22.0941 140.158 21.4573 140.492 20.6287H145.389C145.055 21.8035 144.467 22.8918 143.627 23.8935C142.786 24.8952 141.728 25.699 140.454 26.305C139.193 26.8986 137.802 27.1954 136.281 27.1954C134.413 27.1954 132.725 26.744 131.217 25.8412C129.708 24.9385 128.527 23.7142 127.674 22.1683C126.82 20.6225 126.394 18.9283 126.394 17.0857C126.394 15.2431 126.82 13.5488 127.674 12.003C128.527 10.4572 129.708 9.23289 131.217 8.33012C132.725 7.42736 134.413 6.97598 136.281 6.97598C138.148 6.97598 139.811 7.42118 141.271 8.31157C142.73 9.20197 143.861 10.3953 144.665 11.8917C145.482 13.3757 145.89 14.9957 145.89 16.7518ZM141.308 14.804C141.246 14.0991 140.98 13.4499 140.51 12.8563C140.04 12.2503 139.428 11.7742 138.674 11.428C137.932 11.0693 137.128 10.89 136.262 10.89C135.063 10.89 133.987 11.2239 133.035 11.8917C132.095 12.5471 131.445 13.5179 131.087 14.804H141.308Z" fill="black"/>
<path d="M153.196 7.55103V10.519C153.752 9.45548 154.612 8.60219 155.774 7.95913C156.949 7.3037 158.26 6.97598 159.707 6.97598C162.242 6.97598 164.153 7.77981 165.439 9.38747C166.725 10.9951 167.368 13.3139 167.368 16.3437V26.6203H162.879V16.4364C162.879 14.6062 162.495 13.2644 161.729 12.4111C160.962 11.5454 159.874 11.1126 158.464 11.1126C157.561 11.1126 156.726 11.3414 155.96 11.799C155.193 12.2442 154.575 12.9058 154.105 13.7838C153.647 14.6495 153.418 15.6821 153.418 16.8816V26.6203H148.929V7.55103H153.196Z" fill="black"/>
<path d="M179.293 26.6203C177.475 26.6203 175.966 26.1195 174.767 25.1178C173.567 24.1037 172.968 22.1869 172.968 19.3673V11.4094H169.016V7.55103H172.968V1.96751L177.457 1.93041V7.55103H183.17V11.4094H177.457V19.5714C177.457 21.785 178.378 22.8918 180.221 22.8918H183.17V26.6203H179.293Z" fill="black"/>
<path d="M191.849 5.51054H184.336V1.39246H203.962V5.51054H196.449V26.6203H191.849V5.51054Z" fill="black"/>
<path d="M221.526 16.7518C221.526 17.1722 221.495 17.6793 221.433 18.2729H206.538C206.686 19.2869 207.008 20.165 207.502 20.907C208.01 21.6489 208.634 22.2178 209.376 22.6135C210.13 22.9969 210.947 23.1886 211.825 23.1886C212.938 23.1886 213.847 22.9722 214.551 22.5393C215.269 22.0941 215.794 21.4573 216.128 20.6287H221.025C220.691 21.8035 220.104 22.8918 219.263 23.8935C218.422 24.8952 217.365 25.699 216.091 26.305C214.83 26.8986 213.438 27.1954 211.917 27.1954C210.05 27.1954 208.362 26.744 206.853 25.8412C205.344 24.9385 204.163 23.7142 203.31 22.1683C202.457 20.6225 202.03 18.9283 202.03 17.0857C202.03 15.2431 202.457 13.5488 203.31 12.003C204.163 10.4572 205.344 9.23289 206.853 8.33012C208.362 7.42736 210.05 6.97598 211.917 6.97598C213.785 6.97598 215.448 7.42118 216.907 8.31157C218.367 9.20197 219.498 10.3953 220.302 11.8917C221.118 13.3757 221.526 14.9957 221.526 16.7518ZM216.944 14.804C216.883 14.0991 216.617 13.4499 216.147 12.8563C215.677 12.2503 215.065 11.7742 214.31 11.428C213.568 11.0693 212.764 10.89 211.899 10.89C210.699 10.89 209.623 11.2239 208.671 11.8917C207.731 12.5471 207.082 13.5179 206.723 14.804H216.944Z" fill="black"/>
<path d="M233.062 27.1954C231.207 27.1954 229.525 26.744 228.016 25.8412C226.52 24.9385 225.345 23.7142 224.492 22.1683C223.638 20.6225 223.212 18.9283 223.212 17.0857C223.212 15.2554 223.638 13.5674 224.492 12.0216C225.345 10.4757 226.52 9.25144 228.016 8.34867C229.525 7.43355 231.207 6.97598 233.062 6.97598C234.657 6.97598 236.11 7.29133 237.421 7.92203C238.732 8.54036 239.826 9.40602 240.704 10.519C241.582 11.6196 242.201 12.8748 242.559 14.2846H237.977C237.557 13.2582 236.914 12.4791 236.048 11.9474C235.195 11.4156 234.206 11.1497 233.08 11.1497C232.14 11.1497 231.256 11.3909 230.428 11.8732C229.599 12.3431 228.931 13.0294 228.424 13.9322C227.917 14.835 227.664 15.8861 227.664 17.0857C227.664 18.2976 227.917 19.3549 228.424 20.2577C228.931 21.1481 229.599 21.8344 230.428 22.3167C231.256 22.799 232.14 23.0402 233.08 23.0402C234.218 23.0402 235.22 22.7619 236.085 22.2054C236.951 21.6366 237.582 20.7833 237.977 19.6456H242.541C242.207 21.1172 241.601 22.428 240.723 23.5781C239.857 24.7159 238.763 25.6063 237.44 26.2493C236.116 26.88 234.657 27.1954 233.062 27.1954Z" fill="black"/>
<path d="M250.051 0.674327V8.27447L249.94 10.4077C250.546 9.34418 251.405 8.50944 252.518 7.90348C253.631 7.28515 254.905 6.97598 256.339 6.97598C258.875 6.97598 260.785 7.77981 262.071 9.38747C263.357 10.9951 264.001 13.3139 264.001 16.3437V26.6203H259.511V16.4364C259.511 14.6062 259.128 13.2644 258.361 12.4111C257.595 11.5454 256.506 11.1126 255.097 11.1126C254.219 11.1126 253.39 11.3599 252.611 11.8546C251.844 12.3369 251.226 13.0171 250.756 13.8951C250.286 14.7731 250.051 15.7686 250.051 16.8816V26.6203H245.562V0.674316L250.051 0.674327Z" fill="black"/>
<circle cx="57.4639" cy="17.0904" r="10.1123" fill="#601EF3"/>
<circle cx="33.7901" cy="17.0904" r="10.1123" fill="#00A0F2"/>
<circle cx="10.1123" cy="17.0904" r="10.1123" fill="#FFB500"/>
</svg>
