<svg width="484" height="58" viewBox="0 0 484 58" fill="none" xmlns="http://www.w3.org/2000/svg">
<path d="M87.6846 11.2607H71.7441V2.52302H113.386V11.2607H97.4456V56.0513H87.6846V11.2607Z" fill="black"/>
<path d="M129.861 57.2715C126.292 57.2715 123.052 56.3137 120.139 54.3983C117.227 52.4828 114.944 49.8851 113.291 46.6052C111.638 43.3253 110.811 39.7305 110.811 35.8208C110.811 31.9374 111.638 28.3557 113.291 25.0758C114.97 21.7958 117.253 19.1981 120.139 17.2827C123.052 15.341 126.279 14.3701 129.822 14.3701C133.128 14.3701 136.053 15.0917 138.599 16.5348C141.17 17.9518 143.112 19.9197 144.424 22.4387V15.5902H153.476V56.0513H144.424V49.2422C143.112 51.7612 141.17 53.7292 138.599 55.1461C136.053 56.563 133.141 57.2715 129.861 57.2715ZM132.144 48.4551C134.322 48.4551 136.316 47.904 138.126 46.802C139.963 45.6737 141.406 44.1518 142.456 42.2363C143.505 40.2946 144.03 38.1561 144.03 35.8208C144.03 33.5117 143.492 31.3995 142.417 29.484C141.367 27.5423 139.937 26.0073 138.126 24.879C136.316 23.7507 134.322 23.1865 132.144 23.1865C129.966 23.1865 127.972 23.7244 126.161 24.8002C124.351 25.8498 122.908 27.3323 121.832 29.2478C120.782 31.1633 120.257 33.3543 120.257 35.8208C120.257 38.366 120.795 40.5964 121.871 42.5118C122.947 44.4273 124.39 45.8967 126.201 46.92C128.011 47.9434 129.992 48.4551 132.144 48.4551Z" fill="black"/>
<path d="M164.874 0.594421H174.399V56.0513H164.874V0.594421Z" fill="black"/>
<path d="M224.25 35.1123C224.25 36.0045 224.185 37.0803 224.054 38.3398H192.448C192.763 40.4914 193.445 42.3544 194.495 43.9288C195.571 45.5031 196.896 46.7101 198.47 47.5498C200.071 48.3632 201.803 48.7699 203.666 48.7699C206.027 48.7699 207.956 48.3107 209.451 47.3924C210.973 46.4477 212.088 45.0964 212.797 43.3384H223.188C222.479 45.8311 221.233 48.1402 219.449 50.2656C217.664 52.391 215.421 54.0965 212.718 55.3822C210.042 56.6417 207.09 57.2715 203.862 57.2715C199.9 57.2715 196.319 56.3137 193.117 54.3983C189.916 52.4828 187.41 49.8851 185.6 46.6052C183.789 43.3253 182.884 39.7305 182.884 35.8208C182.884 31.9111 183.789 28.3163 185.6 25.0364C187.41 21.7565 189.916 19.1588 193.117 17.2433C196.319 15.3278 199.9 14.3701 203.862 14.3701C207.825 14.3701 211.354 15.3147 214.45 17.2039C217.546 19.0932 219.947 21.6253 221.653 24.8002C223.385 27.949 224.25 31.3863 224.25 35.1123ZM214.529 30.9796C214.398 29.484 213.833 28.1064 212.836 26.8469C211.839 25.5612 210.54 24.551 208.94 23.8163C207.365 23.0553 205.66 22.6749 203.823 22.6749C201.278 22.6749 198.995 23.3833 196.975 24.8002C194.98 26.1909 193.603 28.2507 192.842 30.9796H214.529Z" fill="black"/>
<path d="M241.276 15.5902V21.8877C242.457 19.6311 244.281 17.8206 246.747 16.4561C249.24 15.0654 252.021 14.3701 255.091 14.3701C260.471 14.3701 264.524 16.0757 267.253 19.4868C269.982 22.8979 271.347 27.8178 271.347 34.2464V56.0513H261.822V34.4432C261.822 30.5598 261.008 27.7128 259.382 25.9023C257.755 24.0655 255.446 23.1472 252.454 23.1472C250.539 23.1472 248.768 23.6326 247.141 24.6035C245.514 25.5481 244.202 26.9519 243.205 28.8149C242.234 30.6516 241.749 32.8426 241.749 35.3878V56.0513H232.224V15.5902H241.276Z" fill="black"/>
<path d="M298.173 56.0513C294.316 56.0513 291.115 54.9887 288.57 52.8633C286.024 50.7116 284.752 46.6445 284.752 40.662V23.7769H276.368V15.5902H284.752V3.74315L294.277 3.66443V15.5902H306.399V23.7769H294.277V41.0949C294.277 45.7918 296.231 48.1402 300.141 48.1402H306.399V56.0513H298.173Z" fill="black"/>
<path d="M326.338 11.2607H310.397V2.52302H352.039V11.2607H336.099V56.0513H326.338V11.2607Z" fill="black"/>
<path d="M390.831 35.1123C390.831 36.0045 390.765 37.0803 390.634 38.3398H359.029C359.344 40.4914 360.026 42.3544 361.075 43.9288C362.151 45.5031 363.476 46.7101 365.051 47.5498C366.651 48.3632 368.383 48.7699 370.246 48.7699C372.608 48.7699 374.536 48.3107 376.032 47.3924C377.554 46.4477 378.669 45.0964 379.377 43.3384H389.768C389.06 45.8311 387.813 48.1402 386.029 50.2656C384.245 52.391 382.001 54.0965 379.299 55.3822C376.622 56.6417 373.67 57.2715 370.443 57.2715C366.481 57.2715 362.899 56.3137 359.698 54.3983C356.497 52.4828 353.991 49.8851 352.18 46.6052C350.37 43.3253 349.464 39.7305 349.464 35.8208C349.464 31.9111 350.37 28.3163 352.18 25.0364C353.991 21.7565 356.497 19.1588 359.698 17.2433C362.899 15.3278 366.481 14.3701 370.443 14.3701C374.405 14.3701 377.934 15.3147 381.03 17.2039C384.127 19.0932 386.528 21.6253 388.233 24.8002C389.965 27.949 390.831 31.3863 390.831 35.1123ZM381.109 30.9796C380.978 29.484 380.414 28.1064 379.417 26.8469C378.42 25.5612 377.121 24.551 375.52 23.8163C373.946 23.0553 372.24 22.6749 370.403 22.6749C367.858 22.6749 365.575 23.3833 363.555 24.8002C361.561 26.1909 360.183 28.2507 359.422 30.9796H381.109Z" fill="black"/>
<path d="M416.831 57.2715C412.895 57.2715 409.326 56.3137 406.125 54.3983C402.95 52.4828 400.457 49.8851 398.647 46.6052C396.836 43.3253 395.931 39.7305 395.931 35.8208C395.931 31.9374 396.836 28.3557 398.647 25.0758C400.457 21.7958 402.95 19.1981 406.125 17.2827C409.326 15.341 412.895 14.3701 416.831 14.3701C420.215 14.3701 423.299 15.0392 426.08 16.3774C428.861 17.6894 431.184 19.5261 433.047 21.8877C434.91 24.223 436.221 26.8863 436.982 29.8776H427.261C426.369 27.6997 425.004 26.0466 423.167 24.9183C421.357 23.79 419.258 23.2259 416.87 23.2259C414.876 23.2259 413 23.7376 411.242 24.7609C409.484 25.758 408.067 27.2143 406.991 29.1297C405.915 31.0452 405.377 33.2756 405.377 35.8208C405.377 38.3922 405.915 40.6357 406.991 42.5512C408.067 44.4404 409.484 45.8967 411.242 46.92C413 47.9434 414.876 48.4551 416.87 48.4551C419.284 48.4551 421.409 47.8647 423.246 46.6839C425.083 45.4769 426.421 43.6664 427.261 41.2523H436.943C436.235 44.3748 434.949 47.1562 433.086 49.5965C431.249 52.0105 428.927 53.8997 426.119 55.2642C423.312 56.6024 420.215 57.2715 416.831 57.2715Z" fill="black"/>
<path d="M454.402 0.63378V17.1252L454.166 21.6515C455.452 19.3949 457.275 17.6238 459.637 16.338C461.998 15.0261 464.701 14.3701 467.745 14.3701C473.124 14.3701 477.178 16.0757 479.907 19.4868C482.636 22.8979 484 27.8178 484 34.2464V56.0513H474.475V34.4432C474.475 30.5598 473.662 27.7128 472.035 25.9023C470.408 24.0655 468.099 23.1472 465.108 23.1472C463.245 23.1472 461.487 23.672 459.834 24.7215C458.207 25.7449 456.895 27.188 455.898 29.051C454.901 30.914 454.402 33.0263 454.402 35.3878V56.0513H444.877V0.63378H454.402Z" fill="black"/>
<circle cx="41.9691" cy="44.3695" r="11.7691" fill="#601EF3"/>
<circle cx="41.9691" cy="15.0577" r="11.7691" fill="#00A0F2"/>
<circle cx="11.7691" cy="15.2884" r="11.7691" fill="#FFB500"/>
</svg>
