<svg width="211" height="22" viewBox="0 0 211 22" fill="none" xmlns="http://www.w3.org/2000/svg">
<path d="M66.8814 3.86531H60.877V0.573973H76.5627V3.86531H70.5582V20.7371H66.8814V3.86531Z" fill="black"/>
<path d="M82.1946 21.1967C80.8504 21.1967 79.6297 20.836 78.5326 20.1145C77.4355 19.3929 76.5756 18.4144 75.9529 17.1789C75.3302 15.9434 75.0188 14.5894 75.0188 13.1166C75.0188 11.6538 75.3302 10.3047 75.9529 9.06919C76.5854 7.8337 77.4453 6.8552 78.5326 6.13367C79.6297 5.40226 80.8454 5.03656 82.1797 5.03656C83.4251 5.03656 84.5272 5.30836 85.4859 5.85198C86.4545 6.38571 87.1859 7.127 87.6801 8.07586V5.49616H91.0901V20.7371H87.6801V18.1723C87.1859 19.1211 86.4545 19.8624 85.4859 20.3961C84.5272 20.9299 83.4301 21.1967 82.1946 21.1967ZM83.0545 17.8758C83.8748 17.8758 84.626 17.6682 85.308 17.2531C85.9999 16.8281 86.5435 16.2548 86.9388 15.5333C87.3342 14.8019 87.5319 13.9963 87.5319 13.1166C87.5319 12.2469 87.3293 11.4512 86.924 10.7297C86.5287 9.99828 85.99 9.42007 85.308 8.99506C84.626 8.57005 83.8748 8.35755 83.0545 8.35755C82.2341 8.35755 81.4829 8.56017 80.8009 8.96541C80.1189 9.36077 79.5753 9.91921 79.1701 10.6407C78.7747 11.3623 78.5771 12.1876 78.5771 13.1166C78.5771 14.0754 78.7797 14.9155 79.1849 15.637C79.5902 16.3586 80.1338 16.9121 80.8158 17.2975C81.4977 17.683 82.244 17.8758 83.0545 17.8758Z" fill="black"/>
<path d="M94.8094 0L98.3973 8.27134e-06V20.7371H94.8094V0Z" fill="black"/>
<path d="M116.601 12.8498C116.601 13.1858 116.577 13.5911 116.527 14.0655H104.622C104.741 14.876 104.998 15.5777 105.393 16.1708C105.798 16.7638 106.297 17.2185 106.89 17.5348C107.493 17.8412 108.146 17.9944 108.848 17.9944C109.737 17.9944 110.464 17.8214 111.027 17.4755C111.6 17.1196 112.02 16.6106 112.287 15.9484H116.201C115.934 16.8874 115.465 17.7571 114.793 18.5577C114.121 19.3583 113.275 20.0008 112.257 20.4851C111.249 20.9595 110.137 21.1967 108.922 21.1967C107.429 21.1967 106.08 20.836 104.874 20.1145C103.668 19.3929 102.724 18.4144 102.042 17.1789C101.36 15.9434 101.019 14.5894 101.019 13.1166C101.019 11.6439 101.36 10.2899 102.042 9.05437C102.724 7.81888 103.668 6.84037 104.874 6.11884C106.08 5.39732 107.429 5.03656 108.922 5.03656C110.414 5.03656 111.743 5.39238 112.91 6.10402C114.076 6.81566 114.98 7.76946 115.623 8.96541C116.275 10.1515 116.601 11.4463 116.601 12.8498ZM112.939 11.2931C112.89 10.7297 112.678 10.2108 112.302 9.73635C111.926 9.25204 111.437 8.87151 110.834 8.59476C110.241 8.30813 109.599 8.16481 108.907 8.16481C107.948 8.16481 107.088 8.43168 106.327 8.96541C105.576 9.48926 105.057 10.2651 104.77 11.2931H112.939Z" fill="black"/>
<path d="M122.441 5.49616V7.8683C122.886 7.01828 123.573 6.33629 124.502 5.82233C125.441 5.29848 126.488 5.03656 127.645 5.03656C129.671 5.03656 131.198 5.67901 132.226 6.96392C133.254 8.24883 133.768 10.1021 133.768 12.5236V20.7371H130.18V12.5977C130.18 11.1349 129.874 10.0625 129.261 9.38053C128.648 8.68866 127.778 8.34272 126.651 8.34272C125.93 8.34272 125.263 8.52558 124.65 8.89128C124.037 9.2471 123.543 9.77589 123.167 10.4776C122.802 11.1695 122.619 11.9948 122.619 12.9536V20.7371H119.031V5.49616H122.441Z" fill="black"/>
<path d="M143.299 20.7371C141.846 20.7371 140.64 20.3368 139.681 19.5362C138.723 18.7258 138.243 17.1938 138.243 14.9402V8.57994H135.085V5.49616H138.243V1.03357L141.831 1.00392V5.49616H146.397V8.57994H141.831V15.1033C141.831 16.8725 142.567 17.7571 144.04 17.7571H146.397V20.7371H143.299Z" fill="black"/>
<path d="M153.334 3.86531H147.33V0.573973H163.015V3.86531H157.011V20.7371H153.334V3.86531Z" fill="black"/>
<path d="M177.053 12.8498C177.053 13.1858 177.029 13.5911 176.979 14.0655H165.074C165.193 14.876 165.45 15.5777 165.845 16.1708C166.25 16.7638 166.749 17.2185 167.342 17.5348C167.945 17.8412 168.598 17.9944 169.299 17.9944C170.189 17.9944 170.915 17.8214 171.479 17.4755C172.052 17.1196 172.472 16.6106 172.739 15.9484H176.653C176.386 16.8874 175.917 17.7571 175.245 18.5577C174.573 19.3583 173.727 20.0008 172.709 20.4851C171.701 20.9595 170.589 21.1967 169.374 21.1967C167.881 21.1967 166.532 20.836 165.326 20.1145C164.12 19.3929 163.176 18.4144 162.494 17.1789C161.812 15.9434 161.471 14.5894 161.471 13.1166C161.471 11.6439 161.812 10.2899 162.494 9.05437C163.176 7.81888 164.12 6.84037 165.326 6.11884C166.532 5.39732 167.881 5.03656 169.374 5.03656C170.866 5.03656 172.195 5.39238 173.362 6.10402C174.528 6.81566 175.432 7.76946 176.075 8.96541C176.727 10.1515 177.053 11.4463 177.053 12.8498ZM173.391 11.2931C173.342 10.7297 173.129 10.2108 172.754 9.73635C172.378 9.25204 171.889 8.87151 171.286 8.59476C170.693 8.30813 170.051 8.16481 169.359 8.16481C168.4 8.16481 167.54 8.43168 166.779 8.96541C166.028 9.48926 165.509 10.2651 165.222 11.2931H173.391Z" fill="black"/>
<path d="M186.273 21.1967C184.791 21.1967 183.446 20.836 182.24 20.1145C181.045 19.3929 180.106 18.4144 179.424 17.1789C178.742 15.9434 178.401 14.5894 178.401 13.1166C178.401 11.6538 178.742 10.3047 179.424 9.06919C180.106 7.8337 181.045 6.8552 182.24 6.13367C183.446 5.40226 184.791 5.03656 186.273 5.03656C187.548 5.03656 188.709 5.2886 189.757 5.79268C190.805 6.28687 191.68 6.97874 192.381 7.8683C193.083 8.74796 193.577 9.75118 193.864 10.8779H190.202C189.866 10.0576 189.352 9.43489 188.66 9.00989C187.978 8.58488 187.187 8.37237 186.288 8.37237C185.537 8.37237 184.83 8.56511 184.168 8.95058C183.506 9.32617 182.972 9.87473 182.567 10.5963C182.161 11.3178 181.959 12.1579 181.959 13.1166C181.959 14.0853 182.161 14.9303 182.567 15.6519C182.972 16.3635 183.506 16.9121 184.168 17.2975C184.83 17.683 185.537 17.8758 186.288 17.8758C187.197 17.8758 187.998 17.6534 188.69 17.2086C189.382 16.7539 189.886 16.0719 190.202 15.1626H193.849C193.582 16.3388 193.098 17.3865 192.396 18.3057C191.704 19.215 190.83 19.9267 189.772 20.4406C188.714 20.9447 187.548 21.1967 186.273 21.1967Z" fill="black"/>
<path d="M199.852 8.27134e-06V6.07437L199.763 7.77934C200.247 6.92933 200.934 6.26216 201.823 5.77785C202.713 5.28365 203.731 5.03656 204.878 5.03656C206.904 5.03656 208.431 5.67901 209.459 6.96392C210.487 8.24883 211.001 10.1021 211.001 12.5236V20.7371H207.413V12.5977C207.413 11.1349 207.106 10.0625 206.494 9.38053C205.881 8.68866 205.011 8.34272 203.884 8.34272C203.182 8.34272 202.52 8.5404 201.898 8.93576C201.285 9.32123 200.791 9.86484 200.415 10.5666C200.039 11.2684 199.852 12.064 199.852 12.9536V20.7371H196.264V0L199.852 8.27134e-06Z" fill="black"/>
<circle cx="45.9279" cy="13.1206" r="8.08221" fill="#601EF3"/>
<circle cx="27.006" cy="13.1206" r="8.08221" fill="#00A0F2"/>
<circle cx="8.08221" cy="13.1206" r="8.08221" fill="#FFB500"/>
</svg>
