<svg width="22" height="22" viewBox="0 0 22 22" fill="none" xmlns="http://www.w3.org/2000/svg">
<path d="M21.3848 20.2764L21.3849 20.2763C21.4182 20.243 21.4447 20.2035 21.4627 20.16L21.3241 20.1026L21.4627 20.16C21.4807 20.1165 21.49 20.0699 21.49 20.0228C21.49 19.9757 21.4807 19.929 21.4627 19.8855L21.3241 19.943L21.4627 19.8855C21.4447 19.842 21.4183 19.8025 21.3849 19.7692C21.3849 19.7692 21.3849 19.7692 21.3849 19.7692L14.8747 13.2599C15.8686 11.9289 16.4049 10.3178 16.4049 8.62639C16.4049 6.54764 15.5932 4.5979 14.1262 3.12855C12.659 1.65892 10.7037 0.85 8.62747 0.85C6.55108 0.85 4.59592 1.66154 3.12879 3.12846C1.65902 4.59547 0.85 6.54787 0.85 8.62639C0.85 10.7025 1.66162 12.6573 3.1287 14.1242C4.59593 15.5938 6.54863 16.4028 8.62747 16.4028C10.3191 16.4028 11.928 15.8665 13.259 14.8752L19.7694 21.3821C19.7694 21.3821 19.7694 21.3821 19.7694 21.3821C19.8027 21.4154 19.8422 21.4418 19.8857 21.4598C19.9292 21.4778 19.9758 21.4871 20.0229 21.4871C20.07 21.4871 20.1166 21.4778 20.1601 21.4598C20.2036 21.4418 20.243 21.4155 20.2763 21.3822C20.2764 21.3822 20.2764 21.3821 20.2765 21.3821L21.3848 20.2764ZM12.5488 12.5469C11.4988 13.5943 10.108 14.1708 8.62747 14.1708C7.14703 14.1708 5.75631 13.5944 4.70635 12.5472C3.65884 11.4973 3.08229 10.1067 3.08229 8.62639C3.08229 7.14597 3.65889 5.75293 4.70619 4.70576C5.75617 3.65846 7.14695 3.08202 8.62747 3.08202C10.1083 3.08202 11.5014 3.65612 12.5486 4.70561C13.5961 5.75545 14.1726 7.14606 14.1726 8.62639C14.1726 10.1068 13.5961 11.4998 12.5488 12.5469Z" fill="black" stroke="black" stroke-width="0.3"/>
</svg>
