<svg width="199" height="166" viewBox="0 0 199 166" fill="none" xmlns="http://www.w3.org/2000/svg">
<g clip-path="url(#clip0_1681_833)">
<g clip-path="url(#clip1_1681_833)">
<g opacity="0.95">
<path opacity="0.95" d="M86.3293 136.968L88.2123 148.001C88.2123 148.001 80.3735 148.375 79.9832 150.051C79.5929 151.726 84.7255 150.173 84.7255 150.173L87.298 149.806C87.298 149.806 83.8818 152.541 85.4139 153.409C86.946 154.276 90.6612 149.788 90.6612 149.788L96.7672 148.381C96.7672 148.381 97.172 146.893 95.5357 146.938C93.8993 146.983 90.1691 147.85 90.1691 147.85L87.4252 136.388L86.3293 136.968Z" fill="#E5AC58"/>
<g style="mix-blend-mode:multiply" opacity="0.43">
<path d="M96.7652 148.379L90.6597 149.789C90.6597 149.789 87.7299 153.325 86.0004 153.514C88.8503 150.957 89.3403 149.003 89.3403 149.003L86.8488 136.697L87.4244 136.393L90.1708 147.855C90.1708 147.855 93.899 146.992 95.5363 146.944C97.1736 146.897 96.7652 148.379 96.7652 148.379Z" fill="black"/>
</g>
<path opacity="0.95" d="M90.1047 133.595L94.3984 150.209C94.3984 150.209 82.8469 151.722 82.4934 154.327C82.1399 156.932 89.5325 153.939 89.5325 153.939L93.292 153.069C93.292 153.069 88.6058 157.657 90.993 158.794C93.3803 159.931 98.2703 152.636 98.2703 152.636L107.119 149.749C107.119 149.749 107.517 147.429 105.1 147.698C102.684 147.967 97.2779 149.738 97.2779 149.738L91.6522 132.575L90.1047 133.595Z" fill="#E5A649"/>
<g style="mix-blend-mode:multiply" opacity="0.43">
<path d="M107.12 149.751L98.2717 152.635C98.2717 152.635 93.3794 159.933 90.9871 158.798C94.697 156.913 96.1202 150.983 96.1202 150.983L90.8016 133.136L91.659 132.575L97.283 149.734C97.283 149.734 102.69 147.966 105.106 147.698C107.522 147.429 107.12 149.751 107.12 149.751Z" fill="black"/>
</g>
</g>
</g>
<path d="M77.206 124.026C77.206 124.026 76.6427 131.296 80.2435 136.302C82.5649 139.183 85.4919 141.365 88.773 142.661C88.773 142.661 94.3675 136.067 90.4727 130.331C86.5778 124.596 77.206 124.026 77.206 124.026Z" fill="url(#paint0_linear_1681_833)"/>
<path d="M81.7886 28.4379C82.9102 19.4566 83.1025 3.58285 81.9168 0C86.6116 1.07646 92.316 5.01278 93.3895 15.0223C93.9824 20.4849 92.1397 31.844 89.8323 35.6036C88.5024 37.7565 84.2882 33.9969 81.7886 28.4379Z" fill="#1E43C0"/>
<path d="M89.2715 35.5715C93.9824 25.9316 95.6809 7.77632 95.104 4.06494C99.5746 5.83227 104.718 10.588 104.189 20.6617C103.901 26.1404 100.424 37.0979 97.4915 40.4558C95.8892 42.3838 90.9059 41.4198 89.2715 35.5715Z" fill="#1E43C0"/>
<path d="M93.5337 42.4799C100.52 34.4466 106.801 17.2393 107.122 13.5601C111.015 16.4199 114.701 22.3003 111.72 31.9242C110.118 37.1619 103.933 46.8661 100.312 49.3886C98.2446 50.7542 93.6459 48.5692 93.5337 42.4799Z" fill="#1E43C0"/>
<path d="M93.2293 47.7337C102.843 43.2351 115.662 30.189 117.505 26.8472C119.876 31.0405 120.822 37.9331 114.172 45.4683C110.535 49.5814 100.937 55.8795 96.5461 56.715C94.1266 57.213 90.8258 53.3249 93.2293 47.7337Z" fill="#1E43C0"/>
<path d="M94.1583 50.7221C102.507 49.3565 114.156 43.3797 119.924 39.5719C120.288 39.3211 120.717 39.1819 121.159 39.1715C121.601 39.1611 122.036 39.2799 122.411 39.5133C122.787 39.7467 123.086 40.0846 123.274 40.4859C123.461 40.8872 123.527 41.3345 123.465 41.773C123.113 45.8058 120.918 50.4008 114.925 54.2889C110.326 57.2773 99.382 60.7156 94.9916 60.3782C92.4759 60.105 90.3448 55.4618 94.1583 50.7221Z" fill="#1E43C0"/>
<path d="M94.7672 54.3212C103.212 54.6425 115.822 51.1078 122.247 48.505C124.042 47.782 125.821 49.9671 125.276 51.8308C124.122 55.7029 121.062 59.2697 114.412 61.8885C109.333 63.8968 97.9078 65.1018 93.6936 63.8968C91.2741 63.1899 90.0884 58.2093 94.7672 54.3212Z" fill="#1E43C0"/>
<path d="M93.1811 60.9564C101.529 62.306 114.476 60.2977 121.158 58.5625C121.582 58.4485 122.029 58.4587 122.447 58.5919C122.864 58.7251 123.235 58.9757 123.515 59.3141C123.796 59.6524 123.973 60.0641 124.026 60.5005C124.08 60.9369 124.008 61.3795 123.818 61.7758C122.216 65.4711 118.674 69.1343 111.752 70.9177C106.449 72.2834 94.9757 72.1066 90.9218 70.3554C88.6144 69.3111 88.0696 64.2661 93.1811 60.9564Z" fill="#1E43C0"/>
<path d="M72.7031 81.5861C72.7031 81.5861 76.741 79.3047 78.1671 64.4109C78.6158 59.7677 81.8846 27.6345 81.8846 27.6345C86.8358 15.6006 119.796 61.535 104.317 86.8078C90.8577 108.851 72.7031 81.5861 72.7031 81.5861Z" fill="url(#paint1_linear_1681_833)"/>
<path d="M72.7031 81.5861C72.7031 81.5861 76.741 79.3047 78.1671 64.4109C78.6158 59.7677 81.8846 27.6345 81.8846 27.6345C86.8358 15.6006 119.796 61.535 104.317 86.8078C90.8577 108.851 72.7031 81.5861 72.7031 81.5861Z" fill="#3B5BCD" fill-opacity="0.2"/>
<path d="M104.878 92.4631C116.303 66.7566 85.6499 24.6942 80.8428 36.2301C80.8428 36.2301 80.6345 38.1741 80.3301 41.1625C87.3644 37.917 109.06 68.9416 104.878 92.4631Z" fill="#1E43C0"/>
<path d="M74.1615 86.647C73.6878 88.0439 72.8329 89.2796 71.6938 90.2138C71.6938 90.2138 72.0944 90.7922 72.7834 91.7079C73.3594 90.0551 73.8199 88.364 74.1615 86.647Z" fill="#3A415D"/>
<path d="M128.993 136.951C122.206 133.683 116.225 128.948 111.48 123.086C111.336 125.094 112.009 131.264 110.919 132.935C117.421 138.005 124.397 142.434 131.749 146.158C138.175 149.258 135.05 139.779 128.993 136.951Z" fill="#1039C5"/>
<path d="M132.182 145.322C124.977 140.868 118.338 135.554 112.409 129.497C112.027 131.052 111.31 132.505 110.31 133.754C114.765 139.426 123.129 148.712 129.987 153.452C136.589 157.999 137.294 148.487 132.182 145.322Z" fill="#1039C5"/>
<path d="M130.756 152.874C123.77 145.869 116.447 138.012 111.913 131.296C111.316 132.692 110.425 133.942 109.301 134.96C112.794 141.499 119.139 152.022 125.324 158.385C132.503 165.92 135.451 157.581 130.756 152.874Z" fill="#1039C5"/>
<path d="M119.443 159.59C116.698 151.152 113.101 143.018 108.708 135.313C107.625 136.136 106.388 136.731 105.07 137.064C108.474 144.848 111.202 152.911 113.226 161.164C114.909 167.687 121.879 168.041 119.443 159.59Z" fill="#1039C5"/>
<path d="M113.819 159.493C112.611 151.421 110.724 143.467 108.179 135.714C106.991 136.53 105.641 137.078 104.221 137.321C105.795 144.125 106.707 151.066 106.945 158.047C107.105 164.088 114.717 166.916 113.819 159.493Z" fill="#1039C5"/>
<path d="M102.202 137.418C101.93 137.418 97.5873 137.611 97.395 137.594C102.026 142.286 102.731 147.411 102.555 153.051C102.378 158.69 107.153 164.297 107.842 156.842C108.387 151.058 107.217 143.202 105.952 136.839C104.742 137.238 103.475 137.433 102.202 137.418Z" fill="#1039C5"/>
<path d="M112.458 136.679C113.932 138.542 121.495 150.014 124.796 153.774C129.442 159.059 127.664 163.414 125.597 165.02C123.53 166.627 118.819 164.394 116.592 158.047C114.989 153.517 109.285 142.447 108.275 139.988L112.458 136.679Z" fill="#1039C5"/>
<path d="M56.5194 53.4375C63.7941 56.0885 71.0207 61.9688 80.7789 72.7174C105.087 99.6128 113.291 124.934 115.342 138.462C116.463 145.917 112.265 144.776 109.429 143.137C105.591 140.889 101.538 139.032 97.3312 137.594C83.4228 133.031 65.3804 125.705 58.1859 116.708C45.6876 100.962 51.6483 83.1928 50.3344 78.5496C49.5172 75.513 41.5375 75.3844 41.5375 75.3844C41.5375 75.3844 34.0225 71.1107 35.1281 62.74C36.7785 49.9671 51.0234 51.4131 56.5194 53.4375Z" fill="url(#paint2_linear_1681_833)"/>
<path d="M56.5194 53.4375C63.7941 56.0885 71.0207 61.9688 80.7789 72.7174C105.087 99.6128 113.291 124.934 115.342 138.462C116.463 145.917 112.265 144.776 109.429 143.137C105.591 140.889 101.538 139.032 97.3312 137.594C83.4228 133.031 65.3804 125.705 58.1859 116.708C45.6876 100.962 51.6483 83.1928 50.3344 78.5496C49.5172 75.513 41.5375 75.3844 41.5375 75.3844C41.5375 75.3844 34.0225 71.1107 35.1281 62.74C36.7785 49.9671 51.0234 51.4131 56.5194 53.4375Z" fill="#3B5BCD" fill-opacity="0.2"/>
<path d="M56.5194 53.4375C63.7941 56.0885 71.0207 61.9688 80.7789 72.7174C105.087 99.6128 113.291 124.934 115.342 138.462C116.463 145.917 112.265 144.776 109.429 143.137C105.591 140.889 101.538 139.032 97.3312 137.594C83.4228 133.031 65.3804 125.705 58.1859 116.708C45.6876 100.962 51.6483 83.1928 50.3344 78.5496C49.5172 75.513 41.5375 75.3844 41.5375 75.3844C41.5375 75.3844 34.0225 71.1107 35.1281 62.74C36.7785 49.9671 51.0234 51.4131 56.5194 53.4375Z" fill="url(#paint3_linear_1681_833)"/>
<path d="M50.3344 78.4853C51.3599 82.1324 47.9148 93.8771 52.4495 106.393C76.4847 106.987 70.556 82.8233 87.5889 80.6864L80.2341 72.139C70.7483 61.7439 63.6659 56.0724 56.5194 53.4375C51.0234 51.4131 36.7785 49.9671 35.1121 62.74C34.0225 71.1107 41.5215 75.3844 41.5215 75.3844C41.5215 75.3844 49.5172 75.513 50.3344 78.4853Z" fill="#1E43C0"/>
<path d="M41.5373 75.3845C43.5612 75.4489 45.5691 75.7674 47.514 76.3324C67.7036 77.9391 64.9155 56.7954 56.5192 53.4375C51.1033 51.2525 36.7783 49.9671 35.1119 62.7401C34.0223 71.1108 41.5373 75.3845 41.5373 75.3845Z" fill="url(#paint4_linear_1681_833)"/>
<path d="M81 125.027C81 125.027 81.3862 132.308 85.6073 136.804C88.2833 139.358 91.469 141.141 94.8908 142C94.8908 142 99.5808 134.735 94.9736 129.554C90.3663 124.373 81 125.027 81 125.027Z" fill="url(#paint5_linear_1681_833)"/>
<path d="M153.91 48.3282C168.447 39.8225 180.58 27.7399 189.162 13.2227C195.09 32.133 178.282 46.7697 157.035 57.3254L153.91 48.3282Z" fill="#1E43C0"/>
<path d="M156.666 56.458C172.609 50.3366 195.443 30.7515 195.443 30.7515C195.443 30.7515 198.087 34.977 195.218 42.0945C192.238 49.5012 178.506 59.1733 157.563 64.7966C155.064 60.7639 157.323 58.5306 156.666 56.458Z" fill="#1E43C0"/>
<path d="M154.936 64.3467C171.92 61.5832 198.776 47.043 198.776 47.043C199.095 48.8763 199.044 50.7554 198.626 52.5686C198.208 54.3819 197.43 56.0924 196.34 57.5987C192.238 63.3827 175.686 70.7894 153.926 72.0586C152.452 67.6243 155.08 66.4996 154.936 64.3467Z" fill="#1E43C0"/>
<path d="M150.705 70.2433C166.905 71.8499 195.346 64.9092 195.346 64.9092C195.306 66.7577 194.869 68.5759 194.064 70.2395C193.26 71.9032 192.107 73.3732 190.684 74.5491C185.364 78.8229 167.77 80.9758 147.661 77.0395C147.548 72.6372 150.256 72.2998 150.705 70.2433Z" fill="#1E43C0"/>
<path d="M145.289 74.1953C160.431 79.674 189.786 80.0917 189.786 80.0917C189.786 80.0917 189.049 83.9799 183.281 86.5184C176.872 89.314 158.557 88.8159 140.37 79.9954C141.556 75.7216 144.264 76.0108 145.289 74.1953Z" fill="#1E43C0"/>
<path d="M153.141 83.3696L175.045 89.973C178.907 91.178 174.164 99.4041 166.424 97.1387C160.579 95.3447 154.984 92.8127 149.776 89.6035L153.141 83.3696Z" fill="#1E43C0"/>
<path d="M148.558 87.4663L167.354 98.4559C170.67 100.448 164.63 107.421 157.98 103.597C152.942 100.601 148.311 96.9671 144.2 92.7844L148.558 87.4663Z" fill="#1E43C0"/>
<path d="M142.838 91.4028L158.284 104.674C160.992 107.068 154.262 112.546 148.782 107.887C144.646 104.278 140.995 100.147 137.918 95.5962L142.838 91.4028Z" fill="#1E43C0"/>
<path d="M136.14 93.9253L149.696 109.044C152.083 111.759 144.681 116.338 139.857 111.036C136.238 106.934 133.167 102.375 130.724 97.476L136.14 93.9253Z" fill="#1E43C0"/>
<path d="M128.866 93.604L139.153 111.068C140.931 114.185 132.743 117.254 129.106 111.068C126.385 106.341 124.3 101.274 122.905 95.9979L128.866 93.604Z" fill="#1E43C0"/>
<path d="M122.488 92.9937L128.897 112.113C130.003 115.519 121.382 116.933 119.059 110.201C117.356 105.002 116.348 99.5992 116.062 94.1344L122.488 92.9937Z" fill="#1E43C0"/>
<path d="M115.63 90.6475L118.835 110.554C119.347 114.089 110.615 114.121 109.445 107.1C108.638 101.716 108.541 96.2493 109.156 90.8403L115.63 90.6475Z" fill="#1E43C0"/>
<path d="M108.708 86.7598L109.605 108.626C109.733 112.498 101.593 111.245 99.991 103.71C98.3886 96.1748 86.8838 92.6241 86.8838 92.6241L108.708 86.7598Z" fill="#1E43C0"/>
<path d="M82.9421 90.7762C82.4676 90.4425 82.0922 89.986 81.856 89.4553C81.6197 88.9246 81.5314 88.3396 81.6005 87.7626C81.6695 87.1856 81.8933 86.6382 82.2481 86.1786C82.6029 85.7191 83.0753 85.3646 83.6151 85.1529C90.393 82.3734 105.279 75.5129 113.371 66.1943C118.178 60.6353 145.418 52.6823 154.327 48.0391C163.236 43.3958 169.997 67.6242 151.122 88.3823C135.948 105.124 112.874 98.1668 98.4848 95.8854C90.0245 94.5358 85.4097 92.5596 82.9421 90.7762Z" fill="url(#paint6_linear_1681_833)"/>
<path d="M82.9421 90.7762C82.4676 90.4425 82.0922 89.986 81.856 89.4553C81.6197 88.9246 81.5314 88.3396 81.6005 87.7626C81.6695 87.1856 81.8933 86.6382 82.2481 86.1786C82.6029 85.7191 83.0753 85.3646 83.6151 85.1529C90.393 82.3734 105.279 75.5129 113.371 66.1943C118.178 60.6353 145.418 52.6823 154.327 48.0391C163.236 43.3958 169.997 67.6242 151.122 88.3823C135.948 105.124 112.874 98.1668 98.4848 95.8854C90.0245 94.5358 85.4097 92.5596 82.9421 90.7762Z" fill="#3B5BCD" fill-opacity="0.2"/>
<path d="M82.9419 90.7762C80.4262 90.7762 81.3395 86.1651 83.6148 85.2011C90.3928 82.3734 105.279 75.5129 113.37 66.1943C118.177 60.6353 145.417 52.6823 154.326 48.0391C133.095 57.9521 120.02 66.4514 116.863 69.8575C110.983 76.2038 94.2865 90.728 82.9419 90.7762Z" fill="url(#paint7_linear_1681_833)"/>
<path d="M49.7571 66.9506C51.9105 65.5024 52.3735 62.4107 50.7911 60.0452C49.2088 57.6796 46.1804 56.936 44.027 58.3842C41.8736 59.8324 41.4107 62.924 42.993 65.2895C44.5753 67.6551 47.6037 68.3987 49.7571 66.9506Z" fill="#DA9346"/>
<path d="M49.4593 65.1007C50.8851 64.1418 51.1858 62.0861 50.1309 60.5091C49.0761 58.932 47.0651 58.4309 45.6393 59.3898C44.2135 60.3487 43.9128 62.4044 44.9677 63.9814C46.0225 65.5585 48.0335 66.0596 49.4593 65.1007Z" fill="black"/>
<path d="M46.2164 62.5634C46.5849 62.9168 46.2164 63.8648 45.4793 64.6842C44.7422 65.5036 43.7648 65.9052 43.3962 65.5518C43.0277 65.1983 43.3962 64.2504 44.1493 63.431C44.9024 62.6116 45.8799 62.2099 46.2164 62.5634Z" fill="white"/>
</g>
<rect x="10.4937" y="71" width="63.8113" height="39.3988" rx="4" transform="rotate(15.447 10.4937 71)" fill="url(#paint8_linear_1681_833)"/>
<path d="M34.6796 98.6708L10.6978 75.5454L23.1169 85.8234L35.5361 96.1013L53.0943 93.5318L69.3677 91.8188L34.6796 98.6708Z" fill="url(#paint9_linear_1681_833)"/>
<defs>
<linearGradient id="paint0_linear_1681_833" x1="85.1416" y1="125.04" x2="82.9321" y2="141.896" gradientUnits="userSpaceOnUse">
<stop stop-color="#5E7DE3"/>
<stop offset="1" stop-color="#829DF7"/>
</linearGradient>
<linearGradient id="paint1_linear_1681_833" x1="84.2297" y1="43.3505" x2="120.519" y2="72.88" gradientUnits="userSpaceOnUse">
<stop stop-color="#1E43C0"/>
<stop offset="1" stop-color="#7A95F1"/>
</linearGradient>
<linearGradient id="paint2_linear_1681_833" x1="61" y1="75.5" x2="107.5" y2="140" gradientUnits="userSpaceOnUse">
<stop stop-color="#1E43C0"/>
<stop offset="1" stop-color="#7A95F1"/>
</linearGradient>
<linearGradient id="paint3_linear_1681_833" x1="114.5" y1="137" x2="72" y2="102.5" gradientUnits="userSpaceOnUse">
<stop stop-color="#244DD9"/>
<stop offset="1" stop-color="#9BABFF" stop-opacity="0"/>
</linearGradient>
<linearGradient id="paint4_linear_1681_833" x1="35" y1="56.5" x2="63" y2="67.5" gradientUnits="userSpaceOnUse">
<stop stop-color="#1638AA"/>
<stop offset="1" stop-color="#1E3FAE" stop-opacity="0"/>
</linearGradient>
<linearGradient id="paint5_linear_1681_833" x1="89" y1="125" x2="89" y2="142" gradientUnits="userSpaceOnUse">
<stop stop-color="#5E7DE3"/>
<stop offset="1" stop-color="#829DF7"/>
</linearGradient>
<linearGradient id="paint6_linear_1681_833" x1="199" y1="111.5" x2="202.279" y2="14.945" gradientUnits="userSpaceOnUse">
<stop stop-color="#1E43C0"/>
<stop offset="1" stop-color="#7A95F1"/>
</linearGradient>
<linearGradient id="paint7_linear_1681_833" x1="99" y1="69" x2="117.88" y2="90.7762" gradientUnits="userSpaceOnUse">
<stop stop-color="#1E43C0"/>
<stop offset="1" stop-color="#1E43C0" stop-opacity="0"/>
</linearGradient>
<linearGradient id="paint8_linear_1681_833" x1="36.7008" y1="112.015" x2="60.5705" y2="39.2186" gradientUnits="userSpaceOnUse">
<stop stop-color="#FFCC50"/>
<stop offset="1" stop-color="#FFD850"/>
</linearGradient>
<linearGradient id="paint9_linear_1681_833" x1="8.55651" y1="75.5454" x2="103.199" y2="91.3906" gradientUnits="userSpaceOnUse">
<stop stop-color="#DA9346"/>
<stop offset="1" stop-color="#DA9346" stop-opacity="0"/>
</linearGradient>
<clipPath id="clip0_1681_833">
<rect width="164" height="166" fill="white" transform="translate(35)"/>
</clipPath>
<clipPath id="clip1_1681_833">
<rect width="27" height="26" fill="white" transform="translate(77.4468 134.9) rotate(-9.29481)"/>
</clipPath>
</defs>
</svg>
