<svg width="30" height="24" viewBox="0 0 30 24" fill="none" xmlns="http://www.w3.org/2000/svg">
<path d="M18.1982 0.204642C18.3534 0.203746 18.5073 0.233497 18.651 0.292195C18.7947 0.350892 18.9254 0.437381 19.0356 0.546699L29.6511 11.1622C29.7617 11.2718 29.8494 11.4023 29.9093 11.546C29.9692 11.6898 30 11.8439 30 11.9996C30 12.1553 29.9692 12.3095 29.9093 12.4532C29.8494 12.597 29.7617 12.7274 29.6511 12.8371L19.0356 23.4526C18.8135 23.6747 18.5123 23.7994 18.1982 23.7994C17.8841 23.7994 17.5828 23.6747 17.3607 23.4526C17.1386 23.2305 17.0139 22.9292 17.0139 22.6151C17.0139 22.301 17.1386 21.9998 17.3607 21.7777L27.1506 11.9996L17.3607 2.22158C17.2502 2.11193 17.1624 1.98148 17.1025 1.83775C17.0427 1.69402 17.0118 1.53985 17.0118 1.38414C17.0118 1.22843 17.0427 1.07427 17.1025 0.930534C17.1624 0.786802 17.2502 0.656348 17.3607 0.546699C17.4709 0.437381 17.6016 0.350892 17.7454 0.292195C17.8891 0.233497 18.0429 0.203746 18.1982 0.204642Z" fill="#000000"/>
<path d="M29 12L1 12" stroke="#000000" stroke-width="2" stroke-linecap="round"/>
</svg>
