<svg width="14" height="13" viewBox="0 0 14 13" fill="none" xmlns="http://www.w3.org/2000/svg">
<path d="M10.2024 4.14123C10.6318 3.65821 11.0581 2.53118 9.26904 3.89972C6.72705 5.8729 4.22163 7.72534 4.22163 7.72534C3.96372 7.85653 3.68491 7.92772 3.40193 7.93464C3.11896 7.94155 2.83766 7.88405 2.57493 7.76559C1.50151 7.40333 0.248411 6.92031 0.248411 6.92031C0.248411 6.92031 -0.607215 6.31567 0.857461 5.67165C0.857461 5.67165 7.04986 2.81293 9.19748 1.80578C10.0204 1.40327 12.8121 0.115225 12.8121 0.115225C12.8121 0.115225 14.101 -0.449167 13.9936 0.92025C13.9579 1.48377 13.6716 3.45783 13.3854 5.59115C12.9552 8.61086 12.4901 11.9132 12.4901 11.9132C12.4901 11.9132 12.4185 12.839 11.8102 13C11.1591 12.9876 10.53 12.7328 10.0212 12.2755C9.87809 12.1547 7.33688 10.3425 6.4058 9.45702C6.31109 9.38484 6.23415 9.28689 6.18213 9.17227C6.1301 9.05766 6.1047 8.9301 6.10827 8.80148C6.11184 8.67285 6.14427 8.54733 6.20255 8.43659C6.26083 8.32585 6.34305 8.23349 6.44159 8.1681C7.7328 6.83981 9.27215 5.18863 10.2024 4.14123Z" fill="white"/>
</svg>
