<svg width="14" height="13" viewBox="0 0 14 13" fill="none" xmlns="http://www.w3.org/2000/svg">
<path fill-rule="evenodd" clip-rule="evenodd" d="M7.00726 4.69685e-05C8.91032 4.69685e-05 10.8131 -0.000251666 12.7159 0.000657107C13.3057 0.000960031 13.8126 0.39537 13.9593 0.968502C13.9826 1.05908 13.9972 1.15479 13.9972 1.24839C13.9981 2.78997 14.0054 4.33156 13.992 5.87314C13.9782 7.44835 13.5187 8.87422 12.5838 10.1195C11.5432 11.5051 10.2013 12.4178 8.54747 12.8141C4.75011 13.724 1.12249 11.1825 0.227056 7.62555C0.107567 7.15147 0.0263461 6.67044 0.0225481 6.18062C0.00910923 4.54089 -0.000822648 2.90086 5.38005e-05 1.26113C0.00034595 0.570461 0.594283 0.000952931 1.28785 0.000952931C3.19412 -0.00056169 5.10069 0.000342793 7.00726 0.000342793V4.69685e-05ZM7.0096 6.62803C6.97454 6.5938 6.94737 6.56866 6.92137 6.54261C6.07414 5.69867 5.22749 4.85351 4.37909 4.01108C4.28884 3.91963 4.18195 3.8477 4.06464 3.79951C3.94733 3.75131 3.82195 3.7278 3.69579 3.73034C3.56963 3.73288 3.44522 3.76142 3.3298 3.8143C3.21438 3.86717 3.11027 3.94332 3.02351 4.03833C2.9362 4.13171 2.86754 4.24204 2.82147 4.36301C2.7754 4.48398 2.75283 4.6132 2.75506 4.74324C2.75728 4.87328 2.78426 5.00159 2.83444 5.12079C2.88462 5.23999 2.95701 5.34773 3.04747 5.43784C4.14712 6.53927 5.24969 7.63737 6.35431 8.73365C6.72242 9.09868 7.28918 9.09474 7.66226 8.73426C7.81184 8.59007 7.95763 8.44164 8.10487 8.29473C9.04939 7.35354 9.99332 6.41175 10.9387 5.47147C11.166 5.24579 11.2849 4.97286 11.2551 4.64782C11.2171 4.23463 11.0068 3.93745 10.6299 3.79477C10.2536 3.653 9.91181 3.73873 9.62171 4.0259C9.14667 4.49635 8.67397 4.96921 8.2004 5.44116L7.0096 6.62803Z" fill="white"/>
</svg>
