<svg width="16" height="13" viewBox="0 0 16 13" fill="none" xmlns="http://www.w3.org/2000/svg">
<path fill-rule="evenodd" clip-rule="evenodd" d="M15.2336 1.46578C14.6736 1.71405 14.0705 1.88245 13.4389 1.95761C14.0842 1.57043 14.5792 0.958275 14.8137 0.228684C14.2095 0.586224 13.5402 0.846711 12.8287 0.986857C12.2586 0.379084 11.446 0 10.5468 0C8.82022 0 7.42173 1.39996 7.42173 3.1251C7.42173 3.36981 7.44881 3.60907 7.50242 3.83775C4.90523 3.70693 2.60179 2.46281 1.06076 0.571353C0.791023 1.03345 0.637501 1.57043 0.637501 2.14293C0.637501 3.22767 1.18927 4.1847 2.02698 4.74475C1.51475 4.72872 1.03342 4.58766 0.611231 4.35311C0.611231 4.36682 0.611231 4.37937 0.611231 4.39309C0.611231 5.90669 1.68893 7.16999 3.11839 7.45698C2.85675 7.52867 2.58025 7.56739 2.29557 7.56739C2.09429 7.56739 1.89847 7.5479 1.70703 7.51148C2.10561 8.75322 3.25971 9.65674 4.62763 9.68176C3.55777 10.5205 2.21024 11.0191 0.745534 11.0191C0.49265 11.0191 0.243559 11.0054 0 10.9759C1.3828 11.8625 3.02518 12.3803 4.79022 12.3803C10.539 12.3803 13.6836 7.61722 13.6836 3.48723C13.6836 3.35179 13.6801 3.21741 13.6746 3.08312C14.2855 2.64259 14.8149 2.09188 15.2336 1.46577L15.2336 1.46578Z" fill="white"/>
</svg>
