<svg width="29" height="26" viewBox="0 0 29 26" fill="none" xmlns="http://www.w3.org/2000/svg">
<path d="M20.8349 8.22617C21.7118 7.2667 22.5822 5.02795 18.9288 7.74644C13.7377 11.666 8.62119 15.3457 8.62119 15.3457C8.09452 15.6063 7.52514 15.7477 6.94726 15.7614C6.36938 15.7752 5.79493 15.661 5.2584 15.4256C3.06632 14.706 0.507292 13.7466 0.507292 13.7466C0.507292 13.7466 -1.24002 12.5455 1.75106 11.2662C1.75106 11.2662 14.3969 5.58764 18.7826 3.58701C20.4632 2.78746 26.1642 0.228885 26.1642 0.228885C26.1642 0.228885 28.7963 -0.89223 28.5771 1.82799C28.5041 2.94737 27.9195 6.86866 27.3349 11.1063C26.4565 17.1047 25.5066 23.6645 25.5066 23.6645C25.5066 23.6645 25.3605 25.5035 24.1183 25.8233C22.7886 25.7987 21.5038 25.2926 20.4648 24.3841C20.1725 24.1443 14.983 20.5445 13.0816 18.7855C12.8882 18.6421 12.7311 18.4476 12.6248 18.2199C12.5186 17.9922 12.4667 17.7388 12.474 17.4833C12.4813 17.2278 12.5475 16.9785 12.6665 16.7585C12.7855 16.5385 12.9535 16.3551 13.1547 16.2252C15.7915 13.5867 18.9351 10.3067 20.8349 8.22617Z" fill="#272727"/>
</svg>
