<svg width="29" height="26" viewBox="0 0 29 26" fill="none" xmlns="http://www.w3.org/2000/svg">
<path d="M29 3.11498C27.9101 3.63573 26.7575 3.97997 25.578 4.13701C26.8224 3.3183 27.7548 2.03031 28.2025 0.511977C27.0332 1.2786 25.7531 1.81874 24.418 2.10891C23.5256 1.04307 22.3372 0.333594 21.0392 0.0917464C19.7412 -0.150101 18.4071 0.0893622 17.246 0.772579C16.0849 1.4558 15.1626 2.54412 14.6236 3.86687C14.0846 5.18962 13.9596 6.67196 14.268 8.08143C11.9037 7.94973 9.59094 7.27171 7.48005 6.09143C5.36916 4.91116 3.50733 3.25501 2.0155 1.2306C1.49225 2.23693 1.2173 3.37659 1.218 4.53624C1.21614 5.61319 1.45611 6.67392 1.91655 7.62401C2.37698 8.5741 3.04358 9.38406 3.857 9.98178C2.91157 9.95345 1.98633 9.67405 1.16 9.16735V9.24719C1.16709 10.7561 1.64719 12.216 2.51911 13.38C3.39102 14.544 4.60122 15.3405 5.945 15.6349C5.42772 15.8083 4.89067 15.8997 4.35 15.9064C3.97574 15.9016 3.60241 15.8642 3.2335 15.7946C3.61617 17.0926 4.3567 18.227 5.35206 19.0398C6.34741 19.8527 7.54809 20.3036 8.787 20.3299C6.69494 22.1428 4.11203 23.1323 1.45 23.1405C0.965316 23.1422 0.481017 23.1102 0 23.0447C2.71792 24.9774 5.88528 26.0033 9.1205 25.999C11.3531 26.0245 13.5678 25.5599 15.6355 24.6322C17.7032 23.7044 19.5823 22.3323 21.163 20.5958C22.7438 18.8593 23.9945 16.7933 24.8422 14.5185C25.6899 12.2437 26.1175 9.80568 26.1 7.34684C26.1 7.07536 26.1 6.78792 26.1 6.50047C27.2378 5.56596 28.2191 4.42035 29 3.11498Z" fill="#272727"/>
</svg>
