<svg width="25" height="26" viewBox="0 0 25 26" fill="none" xmlns="http://www.w3.org/2000/svg">
<path fill-rule="evenodd" clip-rule="evenodd" d="M24.9924 16.9967V9.03599C24.9924 1.76471 23.3416 0.0344687 16.3479 0.0344687C-0.754728 -0.0796582 -0.0810442 -0.803009 0.0339561 16.983C0.0339561 24.2543 1.68475 25.9842 8.67845 25.9842H14.4835C21.914 26.1178 25.1793 25.5866 24.9924 16.9967ZM20.1829 18.5512H18.3629C17.674 18.5512 17.4661 17.9699 16.2311 16.6861C15.1521 15.6047 14.6971 15.4695 14.4242 15.4695C14.0471 15.4695 13.9432 15.5776 13.9432 16.1182V17.821C13.9432 18.2805 13.8003 18.5509 12.6432 18.5509C10.7192 18.5509 8.60055 17.3344 7.09239 15.091C4.83054 11.8068 4.21949 9.3198 4.21949 8.81978C4.21949 8.53597 4.32344 8.27925 4.84344 8.27925H6.66344C7.13134 8.27925 7.30029 8.49546 7.48239 8.99548C8.22845 11.5391 10.7842 15.7717 10.8232 13.334V10.5497C10.7453 9.2793 10.0953 9.17119 10.0953 8.71167C10.0953 8.50887 10.2774 8.27925 10.5632 8.27925H13.4229C13.8129 8.27925 13.9429 8.48205 13.9429 8.96839V12.7258C13.9924 13.6268 14.5314 13.2721 15.074 12.6853C16.3869 11.1716 17.3098 8.81978 17.3098 8.81978C17.4269 8.53597 17.6348 8.27925 18.1027 8.27925H19.9227C20.4687 8.27925 20.5856 8.56306 20.4687 8.96866C20.2477 10.0768 18.0248 13.3205 18.0248 13.3342C17.8298 13.6451 17.7519 13.8074 18.0248 14.1722C18.5487 14.851 22.3666 18.4368 20.1829 18.5512Z" fill="#272727"/>
</svg>
